# xmcd
#
# Track frame offsets: 
#        150
#        11427
#        28238
#        39784
#        52201
#        61442
#        75299
#        86928
#        98535
#        115889
#        127570
#        140002
#        150994
#        162930
#        173610
#
# Disc length: 2475 seconds
#
# Revision: 0
# Processed by: cddbd v1.5.2PL0 Copyright (c) Steve Scherf et al.
# Submitted via: ExactAudioCopy v1.3
#
DISCID=ad09a90f
DTITLE=Karl Edelmann und seine Musikanten - Bairische Tanzmusi Folge 2
DYEAR=2000
DGENRE=
TTITLE0=Auf'm Nockerberg
TTITLE1=Lausbuam Boarischer
TTITLE2=Burschenpolka
TTITLE3=Die Tanzlustigen
TTITLE4=Fesche Madl
TTITLE5=Diandl Drah Di
TTITLE6=Am Blaslweiher
TTITLE7=Toskana Polka
TTITLE8=Klarinettenhalbwalzer in F
TTITLE9=A Böhmisch Polkal
TTITLE10=Seggauer Walzer
TTITLE11=Christl Boarischer
TTITLE12=Martini Schottisch
TTITLE13=Hansl Walzer
TTITLE14=Waschermadl Polka
EXTD=
EXTT0=
EXTT1=
EXTT2=
EXTT3=
EXTT4=
EXTT5=
EXTT6=
EXTT7=
EXTT8=
EXTT9=
EXTT10=
EXTT11=
EXTT12=
EXTT13=
EXTT14=
PLAYORDER=
